<?xml version="1.0" encoding="UTF-8"?>
<!DOCTYPE svg PUBLIC "-//W3C//DTD SVG 1.1//EN" "http://www.w3.org/Graphics/SVG/1.1/DTD/svg11.dtd">
<!-- Creator: CorelDRAW 2020 (64 Bit) -->
<svg xmlns="http://www.w3.org/2000/svg" xml:space="preserve" width="400px" height="400px" version="1.1" style="shape-rendering:geometricPrecision; text-rendering:geometricPrecision; image-rendering:optimizeQuality; fill-rule:evenodd; clip-rule:evenodd"
viewBox="0 0 400 400"
 xmlns:xlink="http://www.w3.org/1999/xlink"
 xmlns:xodm="http://www.corel.com/coreldraw/odm/2003">
 <defs>
  <style type="text/css">
   <![CDATA[
    .fil0 {fill:#FEFEFE}
    .fil1 {fill:black;fill-rule:nonzero}
   ]]>
  </style>
 </defs>
 <g id="Camada_x0020_1">
  <metadata id="CorelCorpID_0Corel-Layer"/>
  <g id="_2186710085120">
   <path class="fil0" d="M344.88 167.44l38.8 4.72 1.04 50.43 -38.59 6.29c-3.41,17.71 -10.18,34.71 -19.72,50.02l23.97 30.62 -34.95 36.31 -31.61 -22.82c-14.94,10.11 -31.62,17.24 -49.19,21.31l-4.74 38.03 -50.38 1.04 -6.27 -37.81c-17.71,-3.29 -34.68,-9.57 -50.01,-19l-30.63 23.98 -36.31 -34.96 22.85 -31.61c-10.1,-14.94 -17.2,-31.62 -21.26,-49.19l-37.94 -4.74 -1.03 -50.37 37.7 -6.3c3.28,-17.71 9.49,-34.7 18.93,-50.04l-23.98 -30.66 34.91 -36.39 31.6 22.65c14.94,-10.16 31.6,-17.51 49.2,-21.63l4.72 -38.7 50.42 -1.04 6.31 38.48c17.72,3.4 34.74,10.12 50.06,19.64l30.65 -23.96 36.4 34.9 -22.63 31.6c10.17,14.94 17.55,31.6 21.68,49.2zm-93.75 1.14c3.5,5.37 6.17,11.35 7.8,17.73l51.25 -1.05c-2.92,-20.18 -11.3,-38.57 -23.57,-53.64l-35.48 36.96zm8.52 44.22c-1.3,6.55 -3.68,12.72 -6.94,18.33l37.01 35.52c11.6,-15.68 19.14,-34.51 21.09,-54.9l-51.16 1.05zm-24.97 37.74c-5.51,3.77 -11.69,6.65 -18.32,8.42l1.06 51.31c20.42,-3.06 38.99,-11.73 54.12,-24.35l-36.86 -35.38zm-44.8 9.4c-6.95,-1.31 -13.49,-3.83 -19.38,-7.33l-35.48 36.96c15.91,11.9 35.11,19.59 55.91,21.47l-1.05 -51.1zm-38.63 -25.55c-3.86,-5.76 -6.76,-12.23 -8.44,-19.19l-51.16 1.06c2.85,20.76 11.48,39.65 24.19,55.04l35.41 -36.91zm-8.81 -45.68c1.47,-6.91 4.14,-13.4 7.78,-19.22l-36.86 -35.38c-12.1,15.78 -20.03,34.9 -22.17,55.65l51.25 -1.05zm26.44 -38.04c5.62,-3.59 11.89,-6.27 18.59,-7.82l-1.05 -51.11c-20.51,2.72 -39.22,11.06 -54.55,23.41l37.01 35.52zm45.09 -7.93c6.51,1.45 12.64,3.97 18.17,7.36l35.42 -36.9c-15.55,-11.8 -34.3,-19.57 -54.64,-21.77l1.05 51.31zm134.65 55.36c-0.01,-0.63 -0.53,-1.13 -1.17,-1.11 -0.63,0.01 -1.13,0.53 -1.12,1.16 0.02,0.64 0.54,1.13 1.17,1.12 0.63,-0.01 1.13,-0.53 1.12,-1.17zm-41.1 105.3c0.44,-0.46 0.42,-1.18 -0.03,-1.61 -0.46,-0.44 -1.18,-0.43 -1.62,0.03 -0.44,0.46 -0.42,1.17 0.03,1.61 0.46,0.44 1.18,0.43 1.62,-0.03zm-103.52 45.39c0.64,-0.01 1.13,-0.53 1.12,-1.16 -0.01,-0.64 -0.53,-1.13 -1.16,-1.12 -0.64,0.01 -1.14,0.53 -1.12,1.17 0.01,0.63 0.53,1.13 1.16,1.11zm-105.29 -41.1c0.45,0.44 1.17,0.43 1.61,-0.03 0.44,-0.46 0.43,-1.18 -0.03,-1.61 -0.46,-0.44 -1.18,-0.43 -1.62,0.03 -0.44,0.46 -0.42,1.18 0.04,1.61zm-45.4 -103.51c0.02,0.63 0.54,1.13 1.17,1.12 0.63,-0.02 1.13,-0.54 1.12,-1.17 -0.02,-0.63 -0.53,-1.13 -1.17,-1.12 -0.63,0.02 -1.13,0.53 -1.12,1.17zm41.1 -105.3c-0.44,0.46 -0.42,1.18 0.04,1.62 0.45,0.44 1.17,0.42 1.61,-0.04 0.44,-0.45 0.43,-1.17 -0.03,-1.61 -0.46,-0.44 -1.18,-0.42 -1.62,0.03zm103.52 -45.39c-0.63,0.01 -1.13,0.53 -1.12,1.16 0.01,0.64 0.53,1.14 1.17,1.12 0.63,-0.01 1.13,-0.53 1.12,-1.16 -0.02,-0.64 -0.54,-1.13 -1.17,-1.12zm105.3 41.1c-0.46,-0.44 -1.18,-0.43 -1.62,0.03 -0.44,0.46 -0.42,1.18 0.03,1.62 0.46,0.44 1.18,0.42 1.62,-0.04 0.44,-0.45 0.42,-1.17 -0.03,-1.61z"/>
   <g>
    <g>
     <path class="fil1" d="M208.54 334.02l-7.77 0.16 -1.99 -96.55c2.63,0.22 5.23,0.16 7.78,-0.16l1.98 96.55zm-11.27 -170.02l-1.99 -96.55 7.78 -0.16 1.98 96.56c-2.62,-0.23 -5.23,-0.17 -7.77,0.15z"/>
     <path class="fil1" d="M300.85 290.3l-5.39 5.61 -69.68 -66.88c1.98,-1.66 3.79,-3.54 5.39,-5.6l69.68 66.87zm-128.2 -112.25l-69.67 -66.87 5.38 -5.61 69.68 66.87c-1.97,1.67 -3.78,3.54 -5.39,5.61z"/>
     <path class="fil1" d="M335.2 194.11l0.16 7.77 -96.56 1.99c0.23,-2.63 0.17,-5.23 -0.16,-7.78l96.56 -1.98zm-170.02 11.27l-96.55 1.99 -0.16 -7.78 96.55 -1.98c-0.22,2.62 -0.16,5.23 0.16,7.77z"/>
     <path class="fil1" d="M291.47 101.8l5.61 5.39 -66.87 69.68c-1.67,-1.98 -3.54,-3.79 -5.61,-5.39l66.87 -69.68zm-112.25 128.2l-66.87 69.67 -5.61 -5.38 66.88 -69.68c1.66,1.97 3.54,3.78 5.6,5.39z"/>
    </g>
    <path class="fil1" d="M337.09 175.92c-3.94,-21.38 -12.88,-41 -25.4,-57.68l21.81 -30.46 -24.69 -23.68 -29.55 23.1c-17.18,-11.83 -37.16,-19.95 -58.69,-23.01l-6.08 -37.09 -34.19 0.7 -4.55 37.31c-21.39,3.94 -41.01,12.83 -57.69,25.35l-30.45 -21.83 -23.68 24.68 23.09 29.54c-11.82,17.18 -19.2,37.14 -22.26,58.67l-36.33 6.07 0.7 34.19 36.55 4.56c3.94,21.39 12.46,41.02 24.98,57.7l-22.02 30.46 24.59 23.68 29.49 -23.1c17.18,11.83 37.12,19.3 58.65,22.36l6.05 36.43 34.18 -0.71 4.57 -36.64c21.38,-3.94 41.01,-12.51 57.69,-25.03l30.46 22 23.68 -24.6 -23.09 -29.5c11.82,-17.18 20.05,-37.14 23.1,-58.67l37.18 -6.06 -0.7 -34.19 -37.4 -4.55zm20.89 21.99c0.11,5.8 -4.49,10.6 -10.29,10.72 -5.8,0.12 -10.59,-4.49 -10.71,-10.29 -0.12,-5.79 4.48,-10.59 10.28,-10.71 5.8,-0.12 10.6,4.48 10.72,10.28zm-43.71 111.97c-4.01,4.18 -10.66,4.32 -14.85,0.31 -4.18,-4.02 -4.32,-10.67 -0.3,-14.85 4.01,-4.19 10.66,-4.32 14.85,-0.31 4.18,4.02 4.32,10.67 0.3,14.85zm-110.08 48.27c-5.79,0.12 -10.59,-4.48 -10.71,-10.28 -0.12,-5.8 4.48,-10.6 10.28,-10.72 5.8,-0.12 10.6,4.49 10.72,10.29 0.12,5.79 -4.49,10.59 -10.29,10.71zm-111.96 -43.7c-4.19,-4.02 -4.32,-10.67 -0.31,-14.85 4.02,-4.18 10.66,-4.32 14.85,-0.31 4.18,4.02 4.32,10.67 0.3,14.85 -4.01,4.19 -10.66,4.32 -14.84,0.31zm-48.27 -110.08c-0.12,-5.8 4.48,-10.6 10.28,-10.71 5.8,-0.12 10.6,4.48 10.71,10.28 0.12,5.8 -4.48,10.59 -10.28,10.71 -5.8,0.12 -10.59,-4.48 -10.71,-10.28zm43.7 -111.97c4.02,-4.18 10.66,-4.32 14.85,-0.3 4.18,4.01 4.32,10.66 0.3,14.84 -4.01,4.19 -10.66,4.33 -14.84,0.31 -4.19,-4.02 -4.33,-10.66 -0.31,-14.85zm110.08 -48.27c5.8,-0.12 10.59,4.49 10.71,10.28 0.12,5.8 -4.48,10.6 -10.28,10.72 -5.8,0.12 -10.6,-4.48 -10.72,-10.28 -0.11,-5.8 4.49,-10.6 10.29,-10.72zm111.96 43.71c4.19,4.01 4.33,10.66 0.31,14.84 -4.02,4.19 -10.66,4.32 -14.85,0.31 -4.18,-4.02 -4.32,-10.66 -0.3,-14.85 4.01,-4.18 10.66,-4.32 14.84,-0.3zm-106.27 232.99l0 0c-66.1,1.36 -120.79,-51.13 -122.15,-117.23 -1.36,-66.1 51.12,-120.79 117.22,-122.15 66.11,-1.35 120.79,51.13 122.15,117.23 1.36,66.1 -51.12,120.79 -117.22,122.15z"/>
    <path class="fil1" d="M199.93 150.69c-27.87,0.57 -49.99,23.62 -49.42,51.49 0.57,27.86 23.63,49.99 51.49,49.42 27.87,-0.58 49.99,-23.63 49.42,-51.5 -0.57,-27.86 -23.63,-49.99 -51.49,-49.41zm1.5 72.88l0 0c-12.39,0.26 -22.64,-9.58 -22.89,-21.97 -0.26,-12.38 9.58,-22.63 21.96,-22.89 12.39,-0.25 22.64,9.58 22.9,21.97 0.25,12.39 -9.58,22.64 -21.97,22.89z"/>
   </g>
  </g>
 </g>
</svg>
