<svg xmlns="http://www.w3.org/2000/svg" viewBox="0 0 1440 320"><path fill="#0099ff" fill-opacity="0.5" d="M0,32L20,53.3C40,75,80,117,120,112C160,107,200,53,240,58.7C280,64,320,128,360,170.7C400,213,440,235,480,229.3C520,224,560,192,600,165.3C640,139,680,117,720,128C760,139,800,181,840,186.7C880,192,920,160,960,170.7C1000,181,1040,235,1080,213.3C1120,192,1160,96,1200,69.3C1240,43,1280,85,1320,112C1360,139,1400,149,1420,154.7L1440,160L1440,0L1420,0C1400,0,1360,0,1320,0C1280,0,1240,0,1200,0C1160,0,1120,0,1080,0C1040,0,1000,0,960,0C920,0,880,0,840,0C800,0,760,0,720,0C680,0,640,0,600,0C560,0,520,0,480,0C440,0,400,0,360,0C320,0,280,0,240,0C200,0,160,0,120,0C80,0,40,0,20,0L0,0Z"></path></svg>