<svg xmlns="http://www.w3.org/2000/svg" viewBox="0 0 1440 320"><path fill="#0099ff" fill-opacity="0.5" d="M0,32L20,53.3C40,75,80,117,120,112C160,107,200,53,240,58.7C280,64,320,128,360,170.7C400,213,440,235,480,229.3C520,224,560,192,600,165.3C640,139,680,117,720,128C760,139,800,181,840,186.7C880,192,920,160,960,170.7C1000,181,1040,235,1080,213.3C1120,192,1160,96,1200,69.3C1240,43,1280,85,1320,112C1360,139,1400,149,1420,154.7L1440,160L1440,320L1420,320C1400,320,1360,320,1320,320C1280,320,1240,320,1200,320C1160,320,1120,320,1080,320C1040,320,1000,320,960,320C920,320,880,320,840,320C800,320,760,320,720,320C680,320,640,320,600,320C560,320,520,320,480,320C440,320,400,320,360,320C320,320,280,320,240,320C200,320,160,320,120,320C80,320,40,320,20,320L0,320Z"></path></svg>