<?xml version="1.0" encoding="UTF-8"?>
<!DOCTYPE svg PUBLIC "-//W3C//DTD SVG 1.1//EN" "http://www.w3.org/Graphics/SVG/1.1/DTD/svg11.dtd">
<!-- Creator: CorelDRAW 2020 (64 Bit) -->
<svg xmlns="http://www.w3.org/2000/svg" xml:space="preserve" width="160px" height="160px" version="1.1" style="shape-rendering:geometricPrecision; text-rendering:geometricPrecision; image-rendering:optimizeQuality; fill-rule:evenodd; clip-rule:evenodd"
viewBox="0 0 160 160"
 xmlns:xlink="http://www.w3.org/1999/xlink"
 xmlns:xodm="http://www.corel.com/coreldraw/odm/2003">
 <defs>
  <style type="text/css">
   <![CDATA[
    .fil2 {fill:#D2D3D5}
    .fil3 {fill:#A9ABAE}
    .fil1 {fill:#727376}
    .fil0 {fill:black}
    .fil5 {fill:#010101}
    .fil4 {fill:#FDFDFD}
   ]]>
  </style>
 </defs>
 <g id="Camada_x0020_1">
  <metadata id="CorelCorpID_0Corel-Layer"/>
  <g id="_2186999390752">
   <g>
    <circle class="fil0" cx="80.74" cy="80.37" r="76.91"/>
    <circle class="fil1" cx="80.74" cy="80.37" r="73.07"/>
    <circle class="fil2" transform="matrix(-0.300717 -1.70545 1.70545 -0.300717 80.7365 80.3705)" r="34.22"/>
    <g>
     <g>
      <circle class="fil3" transform="matrix(1.05474 -0.185978 0.185978 1.05474 69.3589 15.1996)" r="4.06"/>
      <circle class="fil1" transform="matrix(0.645779 -0.113868 0.113868 0.645779 69.3586 15.1998)" r="4.06"/>
      <rect class="fil3" transform="matrix(0.350109 -0.0617337 0.0940274 0.533256 68.2942 11.8017)" width="2.58" height="12.34"/>
     </g>
     <g>
      <circle class="fil3" transform="matrix(1.05474 -0.185978 0.185978 1.05474 15.7144 92.034)" r="4.06"/>
      <circle class="fil1" transform="matrix(0.645779 -0.113868 0.113868 0.645779 15.7141 92.0342)" r="4.06"/>
      <rect class="fil3" transform="matrix(0.350109 -0.0617337 0.0940274 0.533256 14.6496 88.6362)" width="2.58" height="12.34"/>
     </g>
     <g>
      <circle class="fil3" transform="matrix(1.05474 -0.185978 0.185978 1.05474 145.604 69.131)" r="4.06"/>
      <circle class="fil1" transform="matrix(0.645779 -0.113868 0.113868 0.645779 145.603 69.1312)" r="4.06"/>
      <rect class="fil3" transform="matrix(0.350109 -0.0617337 0.0940274 0.533256 144.539 65.7332)" width="2.58" height="12.34"/>
     </g>
     <g>
      <circle class="fil3" transform="matrix(1.05474 -0.185978 0.185978 1.05474 92.3575 145.631)" r="4.06"/>
      <circle class="fil1" transform="matrix(0.645779 -0.113868 0.113868 0.645779 92.3571 145.631)" r="4.06"/>
      <rect class="fil3" transform="matrix(0.350109 -0.0617337 0.0940274 0.533256 91.2927 142.233)" width="2.58" height="12.34"/>
     </g>
    </g>
    <g>
     <g>
      <circle class="fil3" transform="matrix(0.68843 -0.820439 0.820439 0.68843 30.0295 37.5454)" r="4.06"/>
      <circle class="fil1" transform="matrix(0.421502 -0.502327 0.502327 0.421502 30.0294 37.5458)" r="4.06"/>
      <g>
       <polygon class="fil3" points="27.47,35.4 30.32,37.2 32.6,39.68 29.74,37.9 "/>
       <polygon class="fil3" points="32.18,34.98 29.68,37.25 27.87,40.1 30.38,37.85 "/>
      </g>
     </g>
     <g>
      <circle class="fil3" transform="matrix(0.68843 -0.820439 0.820439 0.68843 131.487 122.678)" r="4.06"/>
      <circle class="fil1" transform="matrix(0.421502 -0.502327 0.502327 0.421502 131.487 122.679)" r="4.06"/>
      <g>
       <polygon class="fil3" points="128.93,120.53 131.78,122.33 134.06,124.81 131.2,123.03 "/>
       <polygon class="fil3" points="133.64,120.12 131.14,122.39 129.33,125.23 131.83,122.98 "/>
      </g>
     </g>
     <g>
      <circle class="fil3" transform="matrix(0.68843 -0.820439 0.820439 0.68843 123.103 29.8501)" r="4.06"/>
      <circle class="fil1" transform="matrix(0.421502 -0.502327 0.502327 0.421502 123.103 29.8505)" r="4.06"/>
      <g>
       <polygon class="fil3" points="120.54,27.7 123.4,29.5 125.67,31.99 122.81,30.21 "/>
       <polygon class="fil3" points="125.25,27.29 122.75,29.56 120.94,32.4 123.45,30.15 "/>
      </g>
     </g>
     <g>
      <circle class="fil3" transform="matrix(0.68843 -0.820439 0.820439 0.68843 38.3237 130.886)" r="4.06"/>
      <circle class="fil1" transform="matrix(0.421502 -0.502327 0.502327 0.421502 38.3235 130.886)" r="4.06"/>
      <g>
       <polygon class="fil3" points="35.76,128.74 38.62,130.54 40.9,133.02 38.03,131.24 "/>
       <polygon class="fil3" points="40.47,128.33 37.97,130.59 36.16,133.44 38.67,131.19 "/>
      </g>
     </g>
    </g>
    <g>
     <g>
      <circle class="fil3" transform="matrix(0.927519 -0.535503 0.535503 0.927519 47.8122 22.8647)" r="4.06"/>
      <circle class="fil1" transform="matrix(0.567889 -0.327871 0.327871 0.567889 47.812 22.8651)" r="4.06"/>
      <g>
       <polygon class="fil3" points="46.14,19.97 48.21,22.64 49.5,25.75 47.42,23.1 "/>
       <polygon class="fil3" points="50.71,21.19 47.58,22.47 44.91,24.52 48.04,23.27 "/>
      </g>
     </g>
     <g>
      <circle class="fil3" transform="matrix(0.927519 -0.535503 0.535503 0.927519 114.034 137.564)" r="4.06"/>
      <circle class="fil1" transform="matrix(0.567889 -0.327871 0.327871 0.567889 114.034 137.564)" r="4.06"/>
      <g>
       <polygon class="fil3" points="112.36,134.67 114.43,137.34 115.72,140.45 113.64,137.8 "/>
       <polygon class="fil3" points="116.93,135.89 113.8,137.17 111.13,139.22 114.26,137.96 "/>
      </g>
     </g>
     <g>
      <circle class="fil3" transform="matrix(0.927519 -0.535503 0.535503 0.927519 137.905 47.4665)" r="4.06"/>
      <circle class="fil1" transform="matrix(0.567889 -0.327871 0.327871 0.567889 137.904 47.4668)" r="4.06"/>
      <g>
       <polygon class="fil3" points="136.23,44.57 138.3,47.24 139.59,50.35 137.51,47.7 "/>
       <polygon class="fil3" points="140.8,45.8 137.67,47.07 135,49.12 138.13,47.87 "/>
      </g>
     </g>
     <g>
      <circle class="fil3" transform="matrix(0.927519 -0.535503 0.535503 0.927519 23.6818 113.413)" r="4.06"/>
      <circle class="fil1" transform="matrix(0.567889 -0.327871 0.327871 0.567889 23.6815 113.413)" r="4.06"/>
      <g>
       <polygon class="fil3" points="22.01,110.52 24.08,113.19 25.37,116.3 23.29,113.65 "/>
       <polygon class="fil3" points="26.58,111.74 23.45,113.02 20.78,115.07 23.91,113.81 "/>
      </g>
     </g>
    </g>
    <g>
     <g>
      <circle class="fil3" transform="matrix(0.366306 -1.00642 1.00642 0.366306 18.5907 57.6174)" r="4.06"/>
      <circle class="fil1" transform="matrix(0.224277 -0.616195 0.616195 0.224277 18.5907 57.6178)" r="4.06"/>
      <g>
       <polygon class="fil3" points="15.45,56.47 18.75,57.19 21.74,58.74 18.44,58.05 "/>
       <polygon class="fil3" points="19.73,54.48 18.16,57.46 17.43,60.75 19.02,57.78 "/>
      </g>
     </g>
     <g>
      <circle class="fil3" transform="matrix(0.366306 -1.00642 1.00642 0.366306 143.047 102.916)" r="4.06"/>
      <circle class="fil1" transform="matrix(0.224277 -0.616195 0.616195 0.224277 143.047 102.916)" r="4.06"/>
      <g>
       <polygon class="fil3" points="139.91,101.77 143.2,102.49 146.19,104.04 142.9,103.35 "/>
       <polygon class="fil3" points="144.19,99.78 142.62,102.76 141.89,106.05 143.48,103.08 "/>
      </g>
     </g>
     <g>
      <circle class="fil3" transform="matrix(0.366306 -1.00642 1.00642 0.366306 103.419 18.5532)" r="4.06"/>
      <circle class="fil1" transform="matrix(0.224277 -0.616195 0.616195 0.224277 103.419 18.5537)" r="4.06"/>
      <g>
       <polygon class="fil3" points="100.28,17.41 103.58,18.12 106.57,19.68 103.27,18.99 "/>
       <polygon class="fil3" points="104.56,15.41 102.99,18.4 102.26,21.69 103.85,18.72 "/>
      </g>
     </g>
     <g>
      <circle class="fil3" transform="matrix(0.366306 -1.00642 1.00642 0.366306 58.309 142.492)" r="4.06"/>
      <circle class="fil1" transform="matrix(0.224277 -0.616195 0.616195 0.224277 58.309 142.493)" r="4.06"/>
      <g>
       <polygon class="fil3" points="55.17,141.35 58.47,142.06 61.46,143.62 58.16,142.92 "/>
       <polygon class="fil3" points="59.45,139.35 57.88,142.34 57.15,145.63 58.74,142.66 "/>
      </g>
     </g>
    </g>
    <g>
     <g>
      <circle class="fil3" transform="matrix(1.05474 -0.185978 0.185978 1.05474 69.3589 15.1996)" r="4.06"/>
      <circle class="fil1" transform="matrix(0.645779 -0.113868 0.113868 0.645779 69.3586 15.1998)" r="4.06"/>
      <rect class="fil3" transform="matrix(0.350109 -0.0617337 0.0940274 0.533256 68.2942 11.8017)" width="2.58" height="12.34"/>
     </g>
     <g>
      <circle class="fil3" transform="matrix(1.05474 -0.185978 0.185978 1.05474 15.7144 92.034)" r="4.06"/>
      <circle class="fil1" transform="matrix(0.645779 -0.113868 0.113868 0.645779 15.7141 92.0342)" r="4.06"/>
      <rect class="fil3" transform="matrix(0.350109 -0.0617337 0.0940274 0.533256 14.6496 88.6362)" width="2.58" height="12.34"/>
     </g>
     <g>
      <circle class="fil3" transform="matrix(1.05474 -0.185978 0.185978 1.05474 145.604 69.131)" r="4.06"/>
      <circle class="fil1" transform="matrix(0.645779 -0.113868 0.113868 0.645779 145.603 69.1312)" r="4.06"/>
      <rect class="fil3" transform="matrix(0.350109 -0.0617337 0.0940274 0.533256 144.539 65.7332)" width="2.58" height="12.34"/>
     </g>
     <g>
      <circle class="fil3" transform="matrix(1.05474 -0.185978 0.185978 1.05474 92.3575 145.631)" r="4.06"/>
      <circle class="fil1" transform="matrix(0.645779 -0.113868 0.113868 0.645779 92.3571 145.631)" r="4.06"/>
      <rect class="fil3" transform="matrix(0.350109 -0.0617337 0.0940274 0.533256 91.2927 142.233)" width="2.58" height="12.34"/>
     </g>
    </g>
   </g>
   <g>
    <path class="fil4" d="M77.77 59.61c12.2,-2.14 22.23,7.68 23.66,17.96 1.75,12.54 -7.67,22.13 -17.89,23.61 -12.23,1.77 -22.29,-7.34 -23.67,-17.93 -0.85,-6.56 1.52,-12.51 4.51,-16.13 3.04,-3.69 7.03,-6.4 13.39,-7.51zm23.08 -5.99c6.64,-2.71 9.52,7.77 3.53,9.83 -6.63,2.29 -10.26,-7.08 -3.53,-9.83zm-40.43 -6.59c-5.47,0.85 -8.2,3.11 -10.49,6.31 -3.07,4.31 -2.84,7.82 -2.84,13.97 0,5.75 -0.31,29.75 0.19,33.41 0.66,4.9 3.35,8.22 6.27,10.38 3.94,2.9 8.06,2.85 13.75,2.85 5.68,0 30.08,0.3 33.58,-0.15 4.72,-0.6 8.34,-3.36 10.41,-6.25 3.03,-4.21 2.87,-7.85 2.87,-13.96 0,-5.65 0.28,-29.84 -0.14,-33.33 -0.59,-4.96 -3.29,-8.46 -6.23,-10.56 -4.12,-2.94 -7.96,-2.87 -13.87,-2.86 -5.5,0 -30.21,-0.33 -33.5,0.19z"/>
    <path class="fil5" d="M60.42 47.03c3.29,-0.52 28,-0.19 33.5,-0.19 5.91,-0.01 9.75,-0.08 13.87,2.86 2.94,2.1 5.64,5.6 6.23,10.56 0.42,3.49 0.14,27.68 0.14,33.33 0,6.11 0.16,9.75 -2.87,13.96 -2.07,2.89 -5.69,5.65 -10.41,6.25 -3.5,0.45 -27.9,0.15 -33.58,0.15 -5.69,0 -9.81,0.05 -13.75,-2.85 -2.92,-2.16 -5.61,-5.48 -6.27,-10.38 -0.5,-3.66 -0.19,-27.66 -0.19,-33.41 0,-6.15 -0.23,-9.66 2.84,-13.97 2.29,-3.2 5.02,-5.46 10.49,-6.31zm-20.41 53.04c0.91,11.2 9.15,19.74 19.91,20.91l40.45 0.08c10.71,-0.54 19.69,-9.34 20.81,-19.63 0.36,-3.34 0.33,-36.13 0.12,-40.62 -0.54,-11.18 -9.46,-19.96 -19.92,-21.06l-40.57 -0.07c-10.76,0.62 -19.66,9.48 -20.71,19.83l-0.09 40.56z"/>
    <path class="fil5" d="M66.97 81.98c-0.82,-8.09 4.93,-14.47 11.97,-15.3 7.99,-0.95 14.53,4.95 15.37,11.89 1,8.27 -4.99,14.66 -11.99,15.47 -8.09,0.94 -14.64,-5.07 -15.35,-12.06zm10.8 -22.37c-6.36,1.11 -10.35,3.82 -13.39,7.51 -2.99,3.62 -5.36,9.57 -4.51,16.13 1.38,10.59 11.44,19.7 23.67,17.93 10.22,-1.48 19.64,-11.07 17.89,-23.61 -1.43,-10.28 -11.46,-20.1 -23.66,-17.96z"/>
    <path class="fil4" d="M66.97 81.98c0.71,6.99 7.26,13 15.35,12.06 7,-0.81 12.99,-7.2 11.99,-15.47 -0.84,-6.94 -7.38,-12.84 -15.37,-11.89 -7.04,0.83 -12.79,7.21 -11.97,15.3z"/>
    <path class="fil5" d="M100.85 53.62c-6.73,2.75 -3.1,12.12 3.53,9.83 5.99,-2.06 3.11,-12.54 -3.53,-9.83z"/>
   </g>
  </g>
 </g>
</svg>
