<?xml version="1.0" encoding="UTF-8"?>
<!DOCTYPE svg PUBLIC "-//W3C//DTD SVG 1.1//EN" "http://www.w3.org/Graphics/SVG/1.1/DTD/svg11.dtd">
<!-- Creator: CorelDRAW 2020 (64 Bit) -->
<svg xmlns="http://www.w3.org/2000/svg" xml:space="preserve" width="160px" height="160px" version="1.1" style="shape-rendering:geometricPrecision; text-rendering:geometricPrecision; image-rendering:optimizeQuality; fill-rule:evenodd; clip-rule:evenodd"
viewBox="0 0 160 160"
 xmlns:xlink="http://www.w3.org/1999/xlink"
 xmlns:xodm="http://www.corel.com/coreldraw/odm/2003">
 <defs>
  <style type="text/css">
   <![CDATA[
    .fil2 {fill:#D2D3D5}
    .fil3 {fill:#A9ABAE}
    .fil1 {fill:#727376}
    .fil0 {fill:black}
    .fil4 {fill:#FEFEFE}
   ]]>
  </style>
 </defs>
 <g id="Camada_x0020_1">
  <metadata id="CorelCorpID_0Corel-Layer"/>
  <g id="_2186477892128">
   <g>
    <circle class="fil0" cx="79.81" cy="79.77" r="75"/>
    <circle class="fil1" cx="79.81" cy="79.77" r="71.25"/>
    <circle class="fil2" transform="matrix(-0.293252 -1.66311 1.66311 -0.293252 79.8108 79.768)" r="34.22"/>
    <g>
     <g>
      <circle class="fil3" transform="matrix(1.02855 -0.181362 0.181361 1.02855 68.7156 16.2149)" r="4.06"/>
      <circle class="fil1" transform="matrix(0.629748 -0.111042 0.111042 0.629748 68.7153 16.2151)" r="4.06"/>
      <rect class="fil3" transform="matrix(0.341418 -0.0602012 0.0916932 0.520018 67.6773 12.9014)" width="2.58" height="12.34"/>
     </g>
     <g>
      <circle class="fil3" transform="matrix(1.02855 -0.181362 0.181361 1.02855 16.4028 91.1419)" r="4.06"/>
      <circle class="fil1" transform="matrix(0.629748 -0.111042 0.111042 0.629748 16.4025 91.1421)" r="4.06"/>
      <rect class="fil3" transform="matrix(0.341418 -0.0602012 0.0916932 0.520018 15.3645 87.8284)" width="2.58" height="12.34"/>
     </g>
     <g>
      <circle class="fil3" transform="matrix(1.02855 -0.181362 0.181361 1.02855 143.068 68.8075)" r="4.06"/>
      <circle class="fil1" transform="matrix(0.629748 -0.111042 0.111042 0.629748 143.067 68.8077)" r="4.06"/>
      <rect class="fil3" transform="matrix(0.341418 -0.0602012 0.0916932 0.520018 142.029 65.494)" width="2.58" height="12.34"/>
     </g>
     <g>
      <circle class="fil3" transform="matrix(1.02855 -0.181362 0.181361 1.02855 91.1432 143.408)" r="4.06"/>
      <circle class="fil1" transform="matrix(0.629748 -0.111042 0.111042 0.629748 91.1429 143.408)" r="4.06"/>
      <rect class="fil3" transform="matrix(0.341418 -0.0602012 0.0916932 0.520018 90.1049 140.095)" width="2.58" height="12.34"/>
     </g>
    </g>
    <g>
     <g>
      <circle class="fil3" transform="matrix(0.67134 -0.800072 0.800072 0.67134 30.3626 38.006)" r="4.06"/>
      <circle class="fil1" transform="matrix(0.411039 -0.489857 0.489857 0.411039 30.3624 38.0064)" r="4.06"/>
      <g>
       <polygon class="fil3" points="27.87,35.91 30.65,37.66 32.87,40.09 30.08,38.35 "/>
       <polygon class="fil3" points="32.46,35.51 30.02,37.72 28.25,40.49 30.7,38.3 "/>
      </g>
     </g>
     <g>
      <circle class="fil3" transform="matrix(0.67134 -0.800072 0.800072 0.67134 129.301 121.026)" r="4.06"/>
      <circle class="fil1" transform="matrix(0.411039 -0.489857 0.489857 0.411039 129.301 121.026)" r="4.06"/>
      <g>
       <polygon class="fil3" points="126.81,118.93 129.59,120.68 131.81,123.11 129.02,121.37 "/>
       <polygon class="fil3" points="131.4,118.53 128.96,120.74 127.19,123.51 129.64,121.32 "/>
      </g>
     </g>
     <g>
      <circle class="fil3" transform="matrix(0.67134 -0.800072 0.800072 0.67134 121.125 30.5017)" r="4.06"/>
      <circle class="fil1" transform="matrix(0.411039 -0.489857 0.489857 0.411039 121.125 30.5021)" r="4.06"/>
      <g>
       <polygon class="fil3" points="118.63,28.41 121.41,30.16 123.63,32.58 120.84,30.85 "/>
       <polygon class="fil3" points="123.22,28 120.78,30.22 119.02,32.99 121.46,30.79 "/>
      </g>
     </g>
     <g>
      <circle class="fil3" transform="matrix(0.67134 -0.800072 0.800072 0.67134 38.4508 129.029)" r="4.06"/>
      <circle class="fil1" transform="matrix(0.411039 -0.489857 0.489857 0.411039 38.4507 129.03)" r="4.06"/>
      <g>
       <polygon class="fil3" points="35.96,126.93 38.74,128.69 40.96,131.11 38.17,129.38 "/>
       <polygon class="fil3" points="40.55,126.53 38.11,128.74 36.34,131.52 38.79,129.32 "/>
      </g>
     </g>
    </g>
    <g>
     <g>
      <circle class="fil3" transform="matrix(0.904494 -0.52221 0.52221 0.904494 47.7038 23.6898)" r="4.06"/>
      <circle class="fil1" transform="matrix(0.553791 -0.319731 0.319731 0.553791 47.7036 23.6901)" r="4.06"/>
      <g>
       <polygon class="fil3" points="46.08,20.87 48.09,23.47 49.35,26.5 47.32,23.92 "/>
       <polygon class="fil3" points="50.53,22.06 47.48,23.3 44.87,25.31 47.92,24.08 "/>
      </g>
     </g>
     <g>
      <circle class="fil3" transform="matrix(0.904494 -0.52221 0.52221 0.904494 112.282 135.542)" r="4.06"/>
      <circle class="fil1" transform="matrix(0.553791 -0.319731 0.319731 0.553791 112.281 135.542)" r="4.06"/>
      <g>
       <polygon class="fil3" points="110.65,132.72 112.67,135.32 113.93,138.36 111.9,135.77 "/>
       <polygon class="fil3" points="115.1,133.91 112.06,135.16 109.45,137.16 112.5,135.93 "/>
      </g>
     </g>
     <g>
      <circle class="fil3" transform="matrix(0.904494 -0.52221 0.52221 0.904494 135.56 47.6808)" r="4.06"/>
      <circle class="fil1" transform="matrix(0.553791 -0.319731 0.319731 0.553791 135.559 47.6811)" r="4.06"/>
      <g>
       <polygon class="fil3" points="133.93,44.86 135.95,47.46 137.2,50.49 135.18,47.91 "/>
       <polygon class="fil3" points="138.38,46.05 135.33,47.3 132.73,49.3 135.78,48.07 "/>
      </g>
     </g>
     <g>
      <circle class="fil3" transform="matrix(0.904494 -0.52221 0.52221 0.904494 24.1724 111.99)" r="4.06"/>
      <circle class="fil1" transform="matrix(0.553791 -0.319731 0.319731 0.553791 24.1721 111.99)" r="4.06"/>
      <g>
       <polygon class="fil3" points="22.54,109.17 24.56,111.77 25.82,114.8 23.79,112.22 "/>
       <polygon class="fil3" points="26.99,110.36 23.95,111.6 21.34,113.6 24.39,112.38 "/>
      </g>
     </g>
    </g>
    <g>
     <g>
      <circle class="fil3" transform="matrix(0.357212 -0.981433 0.981433 0.357212 19.2077 57.5797)" r="4.06"/>
      <circle class="fil1" transform="matrix(0.218709 -0.600898 0.600898 0.218709 19.2077 57.5801)" r="4.06"/>
      <g>
       <polygon class="fil3" points="16.15,56.46 19.36,57.16 22.28,58.68 19.06,58 "/>
       <polygon class="fil3" points="20.32,54.52 18.79,57.43 18.08,60.64 19.63,57.74 "/>
      </g>
     </g>
     <g>
      <circle class="fil3" transform="matrix(0.357212 -0.981433 0.981433 0.357212 140.574 101.753)" r="4.06"/>
      <circle class="fil1" transform="matrix(0.218709 -0.600898 0.600898 0.218709 140.574 101.754)" r="4.06"/>
      <g>
       <polygon class="fil3" points="137.51,100.64 140.73,101.33 143.64,102.85 140.43,102.18 "/>
       <polygon class="fil3" points="141.69,98.69 140.15,101.6 139.44,104.81 140.99,101.91 "/>
      </g>
     </g>
     <g>
      <circle class="fil3" transform="matrix(0.357212 -0.981433 0.981433 0.357212 101.93 19.4853)" r="4.06"/>
      <circle class="fil1" transform="matrix(0.218709 -0.600898 0.600898 0.218709 101.93 19.4857)" r="4.06"/>
      <g>
       <polygon class="fil3" points="98.87,18.37 102.08,19.07 105,20.58 101.78,19.91 "/>
       <polygon class="fil3" points="103.04,16.42 101.51,19.33 100.8,22.54 102.35,19.64 "/>
      </g>
     </g>
     <g>
      <circle class="fil3" transform="matrix(0.357212 -0.981433 0.981433 0.357212 57.94 140.347)" r="4.06"/>
      <circle class="fil1" transform="matrix(0.218709 -0.600898 0.600898 0.218709 57.94 140.348)" r="4.06"/>
      <g>
       <polygon class="fil3" points="54.88,139.23 58.09,139.93 61.01,141.45 57.79,140.77 "/>
       <polygon class="fil3" points="59.05,137.28 57.52,140.2 56.81,143.4 58.36,140.51 "/>
      </g>
     </g>
    </g>
    <g>
     <g>
      <circle class="fil3" transform="matrix(1.02855 -0.181362 0.181361 1.02855 68.7156 16.2149)" r="4.06"/>
      <circle class="fil1" transform="matrix(0.629748 -0.111042 0.111042 0.629748 68.7153 16.2151)" r="4.06"/>
      <rect class="fil3" transform="matrix(0.341418 -0.0602012 0.0916932 0.520018 67.6773 12.9014)" width="2.58" height="12.34"/>
     </g>
     <g>
      <circle class="fil3" transform="matrix(1.02855 -0.181362 0.181361 1.02855 16.4028 91.1419)" r="4.06"/>
      <circle class="fil1" transform="matrix(0.629748 -0.111042 0.111042 0.629748 16.4025 91.1421)" r="4.06"/>
      <rect class="fil3" transform="matrix(0.341418 -0.0602012 0.0916932 0.520018 15.3645 87.8284)" width="2.58" height="12.34"/>
     </g>
     <g>
      <circle class="fil3" transform="matrix(1.02855 -0.181362 0.181361 1.02855 143.068 68.8075)" r="4.06"/>
      <circle class="fil1" transform="matrix(0.629748 -0.111042 0.111042 0.629748 143.067 68.8077)" r="4.06"/>
      <rect class="fil3" transform="matrix(0.341418 -0.0602012 0.0916932 0.520018 142.029 65.494)" width="2.58" height="12.34"/>
     </g>
     <g>
      <circle class="fil3" transform="matrix(1.02855 -0.181362 0.181361 1.02855 91.1432 143.408)" r="4.06"/>
      <circle class="fil1" transform="matrix(0.629748 -0.111042 0.111042 0.629748 91.1429 143.408)" r="4.06"/>
      <rect class="fil3" transform="matrix(0.341418 -0.0602012 0.0916932 0.520018 90.1049 140.095)" width="2.58" height="12.34"/>
     </g>
    </g>
   </g>
   <path class="fil0" d="M53.42 70.39l11.07 0 0 35.77 -11.07 0 0 -35.77zm28.71 4.86c0.32,0.09 0.22,0.07 0.36,-0.17l1.55 -2.07c2.24,-2.24 5.41,-3.5 8.89,-3.5 12.03,-0.03 13.35,8.55 13.35,18.22l-0.01 18.43 -11.14 0 0 -18.58c0,-3.7 -0.73,-8.33 -5.44,-8.33 -1.62,0 -2.72,0.09 -4.06,0.88 -2.97,1.76 -3.06,6.07 -3.06,9.37 0,5.55 0.01,11.11 0,16.66l-11.03 0 0 -35.77 10.59 0 0 4.86zm-23.26 -9.77c-2.86,0 -4.89,-1.88 -5.79,-3.88 -1.35,-3 -0.04,-6.64 2.73,-8.19 4.33,-2.44 9.63,0.79 9.64,5.49 0.01,3.71 -2.83,6.57 -6.58,6.58zm-16.66 45.47c0,2.02 0.22,2.99 1.33,4.42 0.65,0.84 2.28,1.92 3.76,1.92l64.87 0c0.93,0 1.68,-0.31 2.31,-0.64 0.57,-0.28 1.24,-0.82 1.6,-1.28 1.11,-1.42 1.33,-2.36 1.33,-4.42l0 -62.44c0,-2.64 -0.6,-4.28 -2.91,-5.65 -0.45,-0.27 -1.49,-0.62 -2.18,-0.62l-65.02 0c-0.73,0 -1.75,0.37 -2.24,0.64 -0.66,0.37 -1.03,0.74 -1.54,1.26 -0.51,0.53 -0.8,1.18 -1.02,1.85 -0.23,0.67 -0.29,1.6 -0.29,2.52l0 62.44z"/>
   <path class="fil4" d="M82.13 75.25l0 -4.86 -10.59 0 0 35.77 11.03 0c0.01,-5.55 0,-11.11 0,-16.66 0,-3.3 0.09,-7.61 3.06,-9.37 1.34,-0.79 2.44,-0.88 4.06,-0.88 4.71,0 5.44,4.63 5.44,8.33l0 18.58 11.14 0 0.01 -18.43c0,-9.67 -1.32,-18.25 -13.35,-18.22 -3.48,0 -6.65,1.26 -8.89,3.5l-1.55 2.07c-0.14,0.24 -0.04,0.26 -0.36,0.17z"/>
   <polygon class="fil4" points="53.42,106.16 64.49,106.16 64.49,70.39 53.42,70.39 "/>
   <path class="fil4" d="M58.87 65.48c3.75,-0.01 6.59,-2.87 6.58,-6.58 -0.01,-4.7 -5.31,-7.93 -9.64,-5.49 -2.77,1.55 -4.08,5.19 -2.73,8.19 0.9,2 2.93,3.88 5.79,3.88z"/>
  </g>
 </g>
</svg>
