<?xml version="1.0" encoding="UTF-8"?>
<!DOCTYPE svg PUBLIC "-//W3C//DTD SVG 1.1//EN" "http://www.w3.org/Graphics/SVG/1.1/DTD/svg11.dtd">
<!-- Creator: CorelDRAW 2020 (64 Bit) -->
<svg xmlns="http://www.w3.org/2000/svg" xml:space="preserve" width="450px" height="450px" version="1.1" style="shape-rendering:geometricPrecision; text-rendering:geometricPrecision; image-rendering:optimizeQuality; fill-rule:evenodd; clip-rule:evenodd"
viewBox="0 0 450 450"
 xmlns:xlink="http://www.w3.org/1999/xlink"
 xmlns:xodm="http://www.corel.com/coreldraw/odm/2003">
 <defs>
  <style type="text/css">
   <![CDATA[
    .fil0 {fill:none}
    .fil1 {fill:black}
   ]]>
  </style>
 </defs>
 <g id="Camada_x0020_1">
  <metadata id="CorelCorpID_0Corel-Layer"/>
  <g id="_2491464196496">
   <circle class="fil0" transform="matrix(2.46966 -2.55678 2.55678 2.46966 223.642 224.858)" r="59.7"/>
   <g>
    <path class="fil1" d="M242.52 306.17l-39.71 -0.52 4.62 -58.21c2.65,1.83 5.68,3.23 9,4.06 7.79,1.95 15.64,0.36 21.85,-3.75l4.24 58.42zm-31.33 -106.19l12.35 -155.69 11.27 155.61c-1.59,-0.75 -3.28,-1.36 -5.06,-1.8 -6.47,-1.62 -12.98,-0.8 -18.56,1.88z"/>
    <path class="fil1" d="M197.01 199.13c14.21,-14.71 37.65,-15.11 52.36,-0.9 14.71,14.21 15.11,37.64 0.9,52.35 -14.21,14.72 -37.64,15.12 -52.35,0.91 -14.72,-14.21 -15.12,-37.65 -0.91,-52.36zm39 42.76c-9.4,6.83 -22.56,4.74 -29.39,-4.66 -6.84,-9.41 -4.75,-22.57 4.66,-29.4 9.4,-6.83 22.56,-4.75 29.39,4.66 6.83,9.4 4.75,22.57 -4.66,29.4z"/>
   </g>
  </g>
 </g>
</svg>
