<?xml version="1.0" encoding="UTF-8"?>
<!DOCTYPE svg PUBLIC "-//W3C//DTD SVG 1.1//EN" "http://www.w3.org/Graphics/SVG/1.1/DTD/svg11.dtd">
<!-- Creator: CorelDRAW 2020 (64 Bit) -->
<svg xmlns="http://www.w3.org/2000/svg" xml:space="preserve" width="250px" height="250px" version="1.1" style="shape-rendering:geometricPrecision; text-rendering:geometricPrecision; image-rendering:optimizeQuality; fill-rule:evenodd; clip-rule:evenodd"
viewBox="0 0 250 250"
 xmlns:xlink="http://www.w3.org/1999/xlink"
 xmlns:xodm="http://www.corel.com/coreldraw/odm/2003">
 <defs>
  <style type="text/css">
   <![CDATA[
    .fil0 {fill:#FEFEFE}
    .fil1 {fill:black}
   ]]>
  </style>
 </defs>
 <g id="Camada_x0020_1">
  <metadata id="CorelCorpID_0Corel-Layer"/>
  <g id="_2325304415152">
   <circle class="fil0" cx="120.3" cy="125.83" r="117.78"/>
   <path class="fil1" d="M110.54 15.17c16.79,-1.91 34.44,0.06 49.16,4.94 16.51,5.47 30.42,14.71 42.19,26.74 55.6,56.78 35.05,141.6 -23.15,173.71 -12.86,7.1 -24.58,11.52 -41.03,13.69 -34.31,4.53 -64.81,-8.57 -84.13,-24.72 -18.29,-15.29 -34.73,-38.68 -39.02,-71.19 -8.44,-63.87 40.04,-116.81 95.98,-123.17zm57.49 223.32c49.52,-20.1 82.99,-68.22 77.54,-125.32 -5.8,-60.75 -56.57,-110.33 -121.53,-110.56 -97.92,-0.35 -161.28,113.82 -94.32,199.17 11.94,15.22 30.75,29.2 49.73,36.54 25.9,9.27 54.97,10.35 88.58,0.17z"/>
   <path class="fil1" d="M73.64 210.62c0.76,-3.04 1.49,-1.99 3.84,-10 0.29,-0.99 0.97,-2.41 1.31,-3.34l4.52 1.71c-1.97,6.68 -1.51,3.12 -4.55,6.78 -2.76,3.32 -0.87,4.81 -5.12,4.85zm-8.71 -5.75c1.23,-2.79 2.51,-6.57 5.84,-6.93 0.32,2.18 -0.09,2.65 -1.2,4.27 -1.79,2.62 -1.77,2.91 -4.64,2.66zm-8.17 -6.06c1.45,-3.29 3.15,-6.51 6.71,-6.88 0.11,3.96 0.69,1.63 -1.91,4.16 -1.66,1.61 -1.75,2.18 -4.8,2.72zm-6.59 -7.91c-0.33,-2.76 -0.25,-0.9 2,-3.12 3.07,-3.03 0.67,-2.49 4.68,-2.57 -0.25,2.77 -1.59,4.3 -4.49,5.7 -4.06,1.96 -0.93,0.5 -2.19,-0.01zm-6.25 -7.16c-0.28,-3.19 1.27,-4.39 6.57,-6.41 -0.24,3.58 -2.92,5.32 -6.57,6.41zm-5.66 -8.63c-0.26,-3.17 -0.03,-2.64 3.49,-4.54 2.4,-1.29 3.96,-2.24 6.72,-2.94 -0.46,3.91 0.36,2.12 -4.17,4.54 -2.24,1.21 -3.63,2.34 -6.04,2.94zm-5.28 -10.23c1.86,-2.59 5.9,-4.77 8.34,-2.87 -0.91,1.07 -3.61,3.25 -5.72,3.57 -4.7,0.7 -0.82,0.34 -2.62,-0.7zm-3.66 -9.57c1.01,-1.45 -0.25,-0.46 1.37,-1.61 1.8,-1.27 4.96,-1.57 7.31,-1.61 -1.21,2.94 0.59,1.81 -3.93,3.24 -4.57,1.45 -4.09,0.38 -4.75,-0.02zm-2.54 -9.57c0.61,-2.1 -0.71,-1.89 3.84,-2.74 5.95,-1.11 3.72,0.1 4.84,0.83 -1.06,0.96 0.25,0.62 -2.57,1.62 -0.03,0.02 -2.4,0.53 -2.5,0.54 -2.19,0.36 -1.86,0.55 -3.61,-0.25zm-1.7 -10.52c0.9,-0.55 -1.29,-2.57 8.83,-1.96 -0.74,2.35 1.05,2.28 -3.91,2.73l-4.92 -0.77zm52.67 -86.48c0.6,1.9 0.02,1.24 1.1,3.23l-15.08 12.45c-3.59,3.46 -9.16,10.34 -12.18,15.6 -7.27,12.69 -11.9,25.16 -12.51,42.07 -5.57,0.09 -7.9,1.32 -14.38,1.24l0.1 -7.23c3.05,-0.41 7.08,0.68 9.16,-0.98 -2.02,-2.27 -2.49,-1.55 -8.67,-2.07l0.9 -7.74c1.2,0.2 4.57,1.03 5.33,1.07l3.97 -0.83c-2.27,-2.23 -5.13,-2.23 -8.46,-2.67l1.57 -7.43c3.54,0.5 6.98,2.34 9.16,1.49 -0.57,-1.68 1.96,-1.83 -7.62,-3.89l0.39 -2.38c-1.39,-1.96 -1.37,3.25 -0.79,-3.02 -5.95,5.71 -8.05,30.77 -7.7,40.91 0.87,25.57 11.88,49.47 28.31,66.96 4,4.25 20.56,18.36 27.58,19.76l8.26 -16.9c-8.74,-7.43 -17.87,-8.44 -30.84,-27.99 -6.72,-10.14 -12.06,-23.62 -13.43,-38.48 -0.19,-2.12 -0.25,-12.51 -0.11,-14.65 1.8,-26.94 17.25,-48.21 38.26,-62.36 0.43,-0.28 2.25,-1.59 2.33,-1.66 1.5,-1.18 0.7,-0.46 1.78,-1.57l-4.16 -4.49c-1.02,0.4 -1.18,-0.43 -2.27,1.56z"/>
   <path class="fil1" d="M214.26 134.26c1.99,2.2 4.29,1.6 8.53,1.99l-0.84 7.12c-4.26,0.82 -6.04,-1.68 -9.21,0.46 2.29,1.96 5.22,2.12 8.25,2.64l-1.46 7.09c-3.82,0.04 -6.8,-2.04 -9.01,-1.12 0.47,1.61 -2.01,1.89 7.39,3.73 -0.29,3.35 -0.84,5.35 -2.96,7.44 -1.47,-0.51 -2.7,-1.3 -3.84,-1.66 -1.07,-0.34 -1.17,-0.42 -2.11,-0.42 -2.28,-0.01 -0.59,-0.37 -2.15,0.48 3.13,3.48 3.85,1.48 7.29,4.79l-2.93 5.89c-4.69,-0.95 -6.92,-3.69 -8.54,-4.21 -0.94,-0.3 -0.48,-0.21 -1.26,-0.24 -2.23,-0.08 -0.29,-0.47 -1.92,0.47 2.02,3.03 6.48,4.48 9.56,6.7 -0.76,3.12 -1.23,3.79 -3.67,6.32 -2.76,-1.47 -4.74,-4.09 -8,-3.88 0.28,3.42 4.23,4.67 6.16,5.84l-3.88 6.05c-4.58,-1.28 -4.53,-4.37 -8.29,-4.46 0.45,4.68 3.17,2.47 5.26,7.35l-5.49 5.22c-1.4,-2.26 -3.12,-5.62 -6.39,-5.76 -0.09,3.21 2.85,4.27 4.54,7.24 -1.5,2.39 -2.97,3.44 -6.19,4.71 -1.19,-2.09 -3.03,-6.03 -5.77,-5.98 -0.38,3.45 2.62,4.5 3.8,7.97 -2.8,2.4 -3.13,2.77 -6.59,4.01 -1.92,-4.67 -4.52,-8.1 -4.68,-13.58 18.97,-12.64 38.6,-35.49 39.13,-69.21 5.65,-0.15 7.94,-1.26 14.3,-1.29l0.16 7.44c-4.49,0.39 -6.63,-1.3 -9.19,0.86zm-39.69 -94.85c3.2,1.02 4.04,1.71 6.55,3.94 -1.44,3.63 -5.2,4.98 -3.52,8.34 2.5,-1.15 3.47,-3.55 5.77,-6.19 3.12,1.15 4.41,2.21 5.92,4.55 -1.75,3.22 -4.59,3.7 -4.56,7.25 3.42,-0.17 4.89,-3.47 6.07,-5.42 2.87,1.3 4.88,3.03 5.71,5.83 -2.22,2.15 -4.83,3.45 -5.11,6.34 3.62,-0.09 3.55,-3.1 8.37,-4.52l3.55 5.83c-2.44,1.98 -5.69,3.26 -5.92,6.12 3.29,0.24 4.91,-2.54 7.98,-3.83 2.46,2.81 2.84,3.12 3.92,6.59 -2.89,1.44 -8.18,3.58 -9.76,6.43 3,1.6 3.26,-0.73 11.37,-4.37l3.23 6.29 -5.58 3.19c-1.82,1.27 -0.41,-0.07 -1.73,1.59 1.05,0.55 0.93,0.99 4.16,0.07 2.64,-0.75 1.52,-1.04 5.15,-1.52l1.87 6.24c-0.2,0.15 -0.48,0.32 -0.63,0.4 -9.47,5.29 -5.51,0.21 -7.03,5.07l8.43 -2.09 2.23 7.35c-3.1,0.47 -6.1,0.75 -8.25,2.66 1.41,0.94 0.68,0.98 4.66,0.66 2.66,-0.22 1.11,-0.83 4.59,-0.29l0.75 7.15c-3.36,0.36 -7.03,-0.28 -8.49,2.05 2.58,2.07 4.72,0.39 9.2,0.87l-0.21 7.41c-6.55,-0.01 -8.52,-1.19 -14.21,-1.33 -0.4,-16.62 -5.78,-31.31 -12.93,-42.65 -3.73,-5.91 -8.41,-11.93 -12.23,-15.53l-14.62 -11.92 5.3 -12.56zm-98.51 -2.02l6.82 -2.79c2.59,9.5 2.43,6.43 5.4,7.22l-3.25 -8.66 6.48 -2.42c1.44,1.68 0.42,0.06 1.56,2.57 2.5,5.52 -0.12,3.96 3.22,4.96 1.17,-2.12 -0.75,-4.82 -1.29,-8.31 2.68,-1.63 3.46,-1.94 7.03,-1.82l2.43 7.21c0.06,-0.15 0.27,0.44 0.44,0.63 2.22,-3.17 -0.45,-4.96 0.55,-9.22l7.11 -0.76c0.09,1.09 0.18,4.73 0.37,5.49 1.11,4.68 -0.05,2.18 2.68,2.99l-0.27 -9.2 7.49 0.11c-0.05,3.77 -0.78,8.68 1.21,11.89 3.64,-5.3 1.19,-2.86 1.31,-3.48l0.09 -8.54 7.37 0.13c0.32,4.12 -1.14,6.57 0.8,9.05 2.29,-1.34 1.79,-5.22 2.02,-8.57l6.59 0.89c0.93,1.67 0.39,-0.1 0.58,2.28 0.24,3.03 -1.19,4.42 0.38,6.93 2.33,-2.06 2.17,-4.96 2.61,-8.34l7.34 1.36c-0.2,3.44 -0.73,2.95 -1.12,5.29 -0.75,4.57 0.37,3.74 0.74,4.13 1.79,-1.99 2.15,-4.35 3.14,-7.93l7.14 2.56c-0.53,2.43 -1.2,2.96 -1.73,4.64 -1.03,3.27 -0.42,3.28 0.06,4.21 3.16,-2.58 2.34,-4.38 4.87,-7.42l6.02 2.65c-1.14,5.19 -3.88,7.78 -8.02,12.15 -13.69,-4.12 -17.95,-9.71 -40.2,-9.67 -23.28,0.03 -27.69,6.33 -40.18,9.53 -3.25,-3.79 -6.77,-6.44 -7.79,-11.74zm-47.45 52.1c-0.58,6.27 0.53,-0.78 1.92,1.18l1.79 -4.99c4.07,0.94 6.42,3.7 9,1.69 -2.23,-2.78 -4.73,-2.62 -7.27,-4.78l2.67 -6.12c4.47,1.19 7.54,3.97 8.71,4.35 4.14,1.34 1.58,0.72 3.19,-0.15 -1.97,-3.23 -7.1,-5.07 -9.75,-6.55l3.55 -6.48c4.45,1.53 4.7,4.12 8.24,3.79 0.04,-2.85 -4.39,-4.85 -5.94,-5.88 0.96,-2.99 2.04,-4.13 4.68,-6.06 3.09,1.8 4.2,4.24 7.46,4.72 -0.28,-2.93 0.6,-1.67 -5.29,-6.5 0.86,-2.39 2.59,-4.48 5.83,-5.84 1.19,1.91 2.88,5.12 6.09,5.52 -0.18,-2.99 -2.81,-4.69 -4.52,-7.34 1.33,-2.08 3.19,-3.56 6.01,-4.82 1.67,2.18 2.97,5.7 5.86,6.21 0.36,-3.45 -2.42,-5.05 -3.81,-8.09l6.33 -4.34 4.39 9.73c1.09,-1.99 1.25,-1.16 2.27,-1.56l4.16 4.49c2.13,-0.11 10.52,-4.28 14.71,-5.63 65.45,-20.96 126.75,43.29 102.52,107.37 -7.96,21.04 -19.72,32.69 -38.03,43.87 2.43,6.51 5.19,5.69 10.44,16.33 25.9,-11.4 47.49,-45.09 51.49,-75.65 2.44,-18.58 -0.46,-38.27 -7.37,-53.57 -9.89,-21.9 -25.27,-38.83 -45.27,-49.46 -40.35,-21.44 -83.94,-14.61 -117.93,14.73 -4.99,4.31 -23.97,27.5 -26.13,39.83z"/>
  </g>
 </g>
</svg>
