<?xml version="1.0" encoding="UTF-8"?>
<!DOCTYPE svg PUBLIC "-//W3C//DTD SVG 1.1//EN" "http://www.w3.org/Graphics/SVG/1.1/DTD/svg11.dtd">
<!-- Creator: CorelDRAW 2020 (64 Bit) -->
<svg xmlns="http://www.w3.org/2000/svg" xml:space="preserve" width="160px" height="160px" version="1.1" style="shape-rendering:geometricPrecision; text-rendering:geometricPrecision; image-rendering:optimizeQuality; fill-rule:evenodd; clip-rule:evenodd"
viewBox="0 0 160 160"
 xmlns:xlink="http://www.w3.org/1999/xlink"
 xmlns:xodm="http://www.corel.com/coreldraw/odm/2003">
 <defs>
  <style type="text/css">
   <![CDATA[
    .fil4 {fill:#FEFEFE}
    .fil2 {fill:#D2D3D5}
    .fil3 {fill:#A9ABAE}
    .fil1 {fill:#727376}
    .fil0 {fill:black}
   ]]>
  </style>
 </defs>
 <g id="Camada_x0020_1">
  <metadata id="CorelCorpID_0Corel-Layer"/>
  <g id="_2186999379664">
   <g>
    <circle class="fil0" cx="78.89" cy="79.88" r="75"/>
    <circle class="fil1" cx="78.89" cy="79.88" r="71.25"/>
    <circle class="fil2" transform="matrix(-0.293252 -1.66311 1.66311 -0.293252 78.8928 79.8844)" r="34.22"/>
    <g>
     <g>
      <circle class="fil3" transform="matrix(1.02855 -0.181362 0.181362 1.02855 67.7977 16.3313)" r="4.06"/>
      <circle class="fil1" transform="matrix(0.629748 -0.111042 0.111042 0.629748 67.7973 16.3315)" r="4.06"/>
      <rect class="fil3" transform="matrix(0.341418 -0.0602012 0.0916932 0.520018 66.7593 13.0178)" width="2.58" height="12.34"/>
     </g>
     <g>
      <circle class="fil3" transform="matrix(1.02855 -0.181362 0.181362 1.02855 15.4848 91.2584)" r="4.06"/>
      <circle class="fil1" transform="matrix(0.629748 -0.111042 0.111042 0.629748 15.4845 91.2586)" r="4.06"/>
      <rect class="fil3" transform="matrix(0.341418 -0.0602012 0.0916932 0.520018 14.4465 87.9449)" width="2.58" height="12.34"/>
     </g>
     <g>
      <circle class="fil3" transform="matrix(1.02855 -0.181362 0.181362 1.02855 142.15 68.9239)" r="4.06"/>
      <circle class="fil1" transform="matrix(0.629748 -0.111042 0.111042 0.629748 142.149 68.9241)" r="4.06"/>
      <rect class="fil3" transform="matrix(0.341418 -0.0602012 0.0916932 0.520018 141.111 65.6104)" width="2.58" height="12.34"/>
     </g>
     <g>
      <circle class="fil3" transform="matrix(1.02855 -0.181362 0.181362 1.02855 90.2253 143.525)" r="4.06"/>
      <circle class="fil1" transform="matrix(0.629748 -0.111042 0.111042 0.629748 90.2249 143.525)" r="4.06"/>
      <rect class="fil3" transform="matrix(0.341418 -0.0602012 0.0916932 0.520018 89.1869 140.211)" width="2.58" height="12.34"/>
     </g>
    </g>
    <g>
     <g>
      <circle class="fil3" transform="matrix(0.67134 -0.800072 0.800072 0.67134 29.4446 38.1224)" r="4.06"/>
      <circle class="fil1" transform="matrix(0.411039 -0.489857 0.489857 0.411039 29.4445 38.1228)" r="4.06"/>
      <g>
       <polygon class="fil3" points="26.95,36.03 29.73,37.78 31.95,40.2 29.16,38.47 "/>
       <polygon class="fil3" points="31.54,35.63 29.1,37.84 27.34,40.61 29.78,38.41 "/>
      </g>
     </g>
     <g>
      <circle class="fil3" transform="matrix(0.67134 -0.800072 0.800072 0.67134 128.383 121.142)" r="4.06"/>
      <circle class="fil1" transform="matrix(0.411039 -0.489857 0.489857 0.411039 128.383 121.142)" r="4.06"/>
      <g>
       <polygon class="fil3" points="125.89,119.05 128.67,120.8 130.89,123.22 128.1,121.49 "/>
       <polygon class="fil3" points="130.48,118.64 128.04,120.86 126.28,123.63 128.72,121.43 "/>
      </g>
     </g>
     <g>
      <circle class="fil3" transform="matrix(0.67134 -0.800072 0.800072 0.67134 120.207 30.6182)" r="4.06"/>
      <circle class="fil1" transform="matrix(0.411039 -0.489857 0.489857 0.411039 120.207 30.6185)" r="4.06"/>
      <g>
       <polygon class="fil3" points="117.71,28.52 120.5,30.28 122.72,32.7 119.92,30.97 "/>
       <polygon class="fil3" points="122.3,28.12 119.86,30.33 118.1,33.1 120.55,30.91 "/>
      </g>
     </g>
     <g>
      <circle class="fil3" transform="matrix(0.67134 -0.800072 0.800072 0.67134 37.5328 129.146)" r="4.06"/>
      <circle class="fil1" transform="matrix(0.411039 -0.489857 0.489857 0.411039 37.5327 129.146)" r="4.06"/>
      <g>
       <polygon class="fil3" points="35.04,127.05 37.82,128.8 40.04,131.23 37.25,129.49 "/>
       <polygon class="fil3" points="39.63,126.65 37.19,128.86 35.42,131.63 37.87,129.44 "/>
      </g>
     </g>
    </g>
    <g>
     <g>
      <circle class="fil3" transform="matrix(0.904494 -0.52221 0.52221 0.904494 46.7858 23.8062)" r="4.06"/>
      <circle class="fil1" transform="matrix(0.553791 -0.319731 0.319731 0.553791 46.7856 23.8065)" r="4.06"/>
      <g>
       <polygon class="fil3" points="45.16,20.98 47.17,23.58 48.43,26.62 46.4,24.04 "/>
       <polygon class="fil3" points="49.61,22.18 46.56,23.42 43.95,25.42 47,24.2 "/>
      </g>
     </g>
     <g>
      <circle class="fil3" transform="matrix(0.904494 -0.52221 0.52221 0.904494 111.364 135.658)" r="4.06"/>
      <circle class="fil1" transform="matrix(0.553791 -0.319731 0.319731 0.553791 111.363 135.658)" r="4.06"/>
      <g>
       <polygon class="fil3" points="109.74,132.84 111.75,135.44 113.01,138.47 110.98,135.89 "/>
       <polygon class="fil3" points="114.19,134.03 111.14,135.27 108.53,137.27 111.58,136.05 "/>
      </g>
     </g>
     <g>
      <circle class="fil3" transform="matrix(0.904494 -0.52221 0.52221 0.904494 134.642 47.7972)" r="4.06"/>
      <circle class="fil1" transform="matrix(0.553791 -0.319731 0.319731 0.553791 134.641 47.7975)" r="4.06"/>
      <g>
       <polygon class="fil3" points="133.01,44.97 135.03,47.58 136.29,50.61 134.26,48.03 "/>
       <polygon class="fil3" points="137.46,46.17 134.42,47.41 131.81,49.41 134.86,48.19 "/>
      </g>
     </g>
     <g>
      <circle class="fil3" transform="matrix(0.904494 -0.52221 0.52221 0.904494 23.2544 112.107)" r="4.06"/>
      <circle class="fil1" transform="matrix(0.553791 -0.319731 0.319731 0.553791 23.2542 112.107)" r="4.06"/>
      <g>
       <polygon class="fil3" points="21.63,109.28 23.64,111.88 24.9,114.92 22.87,112.34 "/>
       <polygon class="fil3" points="26.08,110.48 23.03,111.72 20.42,113.72 23.47,112.5 "/>
      </g>
     </g>
    </g>
    <g>
     <g>
      <circle class="fil3" transform="matrix(0.357212 -0.981433 0.981433 0.357212 18.2897 57.6962)" r="4.06"/>
      <circle class="fil1" transform="matrix(0.218709 -0.600898 0.600898 0.218709 18.2898 57.6966)" r="4.06"/>
      <g>
       <polygon class="fil3" points="15.23,56.58 18.44,57.28 21.36,58.79 18.14,58.12 "/>
       <polygon class="fil3" points="19.4,54.63 17.87,57.54 17.16,60.75 18.71,57.86 "/>
      </g>
     </g>
     <g>
      <circle class="fil3" transform="matrix(0.357212 -0.981433 0.981433 0.357212 139.656 101.87)" r="4.06"/>
      <circle class="fil1" transform="matrix(0.218709 -0.600898 0.600898 0.218709 139.656 101.87)" r="4.06"/>
      <g>
       <polygon class="fil3" points="136.59,100.75 139.81,101.45 142.73,102.97 139.51,102.29 "/>
       <polygon class="fil3" points="140.77,98.81 139.24,101.72 138.53,104.93 140.07,102.03 "/>
      </g>
     </g>
     <g>
      <circle class="fil3" transform="matrix(0.357212 -0.981433 0.981433 0.357212 101.012 19.6017)" r="4.06"/>
      <circle class="fil1" transform="matrix(0.218709 -0.600898 0.600898 0.218709 101.012 19.6021)" r="4.06"/>
      <g>
       <polygon class="fil3" points="97.95,18.49 101.17,19.18 104.08,20.7 100.87,20.02 "/>
       <polygon class="fil3" points="102.13,16.54 100.59,19.45 99.88,22.66 101.43,19.76 "/>
      </g>
     </g>
     <g>
      <circle class="fil3" transform="matrix(0.357212 -0.981433 0.981433 0.357212 57.022 140.464)" r="4.06"/>
      <circle class="fil1" transform="matrix(0.218709 -0.600898 0.600898 0.218709 57.022 140.464)" r="4.06"/>
      <g>
       <polygon class="fil3" points="53.96,139.35 57.18,140.04 60.09,141.56 56.88,140.89 "/>
       <polygon class="fil3" points="58.14,137.4 56.6,140.31 55.89,143.52 57.44,140.62 "/>
      </g>
     </g>
    </g>
    <g>
     <g>
      <circle class="fil3" transform="matrix(1.02855 -0.181362 0.181362 1.02855 67.7977 16.3313)" r="4.06"/>
      <circle class="fil1" transform="matrix(0.629748 -0.111042 0.111042 0.629748 67.7973 16.3315)" r="4.06"/>
      <rect class="fil3" transform="matrix(0.341418 -0.0602012 0.0916932 0.520018 66.7593 13.0178)" width="2.58" height="12.34"/>
     </g>
     <g>
      <circle class="fil3" transform="matrix(1.02855 -0.181362 0.181362 1.02855 15.4848 91.2584)" r="4.06"/>
      <circle class="fil1" transform="matrix(0.629748 -0.111042 0.111042 0.629748 15.4845 91.2586)" r="4.06"/>
      <rect class="fil3" transform="matrix(0.341418 -0.0602012 0.0916932 0.520018 14.4465 87.9449)" width="2.58" height="12.34"/>
     </g>
     <g>
      <circle class="fil3" transform="matrix(1.02855 -0.181362 0.181362 1.02855 142.15 68.9239)" r="4.06"/>
      <circle class="fil1" transform="matrix(0.629748 -0.111042 0.111042 0.629748 142.149 68.9241)" r="4.06"/>
      <rect class="fil3" transform="matrix(0.341418 -0.0602012 0.0916932 0.520018 141.111 65.6104)" width="2.58" height="12.34"/>
     </g>
     <g>
      <circle class="fil3" transform="matrix(1.02855 -0.181362 0.181362 1.02855 90.2253 143.525)" r="4.06"/>
      <circle class="fil1" transform="matrix(0.629748 -0.111042 0.111042 0.629748 90.2249 143.525)" r="4.06"/>
      <rect class="fil3" transform="matrix(0.341418 -0.0602012 0.0916932 0.520018 89.1869 140.211)" width="2.58" height="12.34"/>
     </g>
    </g>
   </g>
   <g>
    <path class="fil4" d="M64.03 61.38c1.17,-0.42 3.95,-0.38 4.7,0.46 0.37,0.42 1.35,2.92 1.67,3.67 2.21,5.18 3.06,5.53 1.34,7.65 -2.57,3.17 -4.34,2.82 0.17,8.15 0.46,0.55 0.65,0.96 1.17,1.5 2.49,2.58 6.18,5.02 9.78,6.45 1.85,0.73 2.13,-0.44 3.09,-1.66 3.21,-4.03 2.12,-3.89 6.31,-2 1.93,0.87 6.69,2.59 6.87,3.84 0.46,3.23 -3.56,12.77 -16.31,7.83 -2.97,-1.15 -4.85,-2.13 -7.26,-3.62 -2.15,-1.34 -4.34,-3.01 -5.98,-4.67 -2.8,-2.84 -2.54,-2.31 -5.2,-5.69 -3.25,-4.13 -6.72,-10.15 -5.12,-15.93 0.63,-2.25 3.06,-5.36 4.77,-5.98zm-15.16 48.8c2.33,-0.45 4.71,-1.16 7.04,-1.78 4.98,-1.32 4.16,-1.45 6.39,-0.16 10.61,6.15 23.43,5.98 33.88,-0.42 16.32,-9.99 20.61,-32.23 9.73,-46.97 -2.48,-3.36 -5.1,-6.04 -8.65,-8.44 -23.32,-15.72 -54.93,3.65 -50.95,32.06 1.58,11.25 6.3,12.37 5.34,15.67 -0.81,2.81 -2.29,7.53 -2.78,10.04z"/>
    <path class="fil0" d="M48.87 110.18c0.49,-2.51 1.97,-7.23 2.78,-10.04 0.96,-3.3 -3.76,-4.42 -5.34,-15.67 -3.98,-28.41 27.63,-47.78 50.95,-32.06 3.55,2.4 6.17,5.08 8.65,8.44 10.88,14.74 6.59,36.98 -9.73,46.97 -10.45,6.4 -23.27,6.57 -33.88,0.42 -2.23,-1.29 -1.41,-1.16 -6.39,0.16 -2.33,0.62 -4.71,1.33 -7.04,1.78zm-9.69 9.44l16.78 -4.26c5.12,-1.36 3.4,-0.69 7.71,1.06 8.63,3.53 18.22,4.06 27.06,1.27 15.71,-4.96 26.96,-19.1 27.82,-35.76 0.68,-13.17 -5.3,-24.31 -11.77,-30.38 -8.59,-8.06 -18.1,-12.01 -30.78,-11.33 -5.67,0.31 -11.99,2.42 -16.2,4.8 -1.84,1.03 -4.87,3.01 -6.34,4.32l-2.79 2.53c-8.06,8.71 -13.54,20.99 -10.68,35.6 0.99,5.04 2.12,7.4 4.25,11.53 0.7,1.36 0.02,2.41 -0.41,3.99 -1.49,5.39 -3.44,11.26 -4.65,16.63z"/>
    <path class="fil0" d="M64.03 61.38c-1.71,0.62 -4.14,3.73 -4.77,5.98 -1.6,5.78 1.87,11.8 5.12,15.93 2.66,3.38 2.4,2.85 5.2,5.69 1.64,1.66 3.83,3.33 5.98,4.67 2.41,1.49 4.29,2.47 7.26,3.62 12.75,4.94 16.77,-4.6 16.31,-7.83 -0.18,-1.25 -4.94,-2.97 -6.87,-3.84 -4.19,-1.89 -3.1,-2.03 -6.31,2 -0.96,1.22 -1.24,2.39 -3.09,1.66 -3.6,-1.43 -7.29,-3.87 -9.78,-6.45 -0.52,-0.54 -0.71,-0.95 -1.17,-1.5 -4.51,-5.33 -2.74,-4.98 -0.17,-8.15 1.72,-2.12 0.87,-2.47 -1.34,-7.65 -0.32,-0.75 -1.3,-3.25 -1.67,-3.67 -0.75,-0.84 -3.53,-0.88 -4.7,-0.46z"/>
   </g>
  </g>
 </g>
</svg>
